{
  "source": "C:\\Users\\Peter\\Desktop\\stuff\\MIUN\\quantitative_research\\video_compression\\videos\\BVI-HD\\RockWater_1920x1080_30fps.mp4",
  "output": "C:\\Users\\Peter\\Desktop\\stuff\\MIUN\\quantitative_research\\video_compression\\compressed_videos\\BVI-HD\\av1\\2.5\\RockWater_1920x1080_30fps_av1.mkv",
  "codec": "av1",
  "ok": "Input #0, mov,mp4,m4a,3gp,3g2,mj2, from 'C:\\Users\\Peter\\Desktop\\stuff\\MIUN\\quantitative_research\\video_compression\\videos\\BVI-HD\\RockWater_1920x1080_30fps.mp4':\n  Metadata:\n    major_brand     : isom\n    minor_version   : 512\n    compatible_brands: isomiso2avc1mp41\n    encoder         : Lavf54.28.101\n  Duration: 00:00:05.00, start: 0.000000, bitrate: 245943 kb/s\n  Stream #0:0[0x1](und): Video: h264 (High 4:4:4 Predictive) (avc1 / 0x31637661), yuv420p(progressive), 1920x1080, 245940 kb/s, 30 fps, 30 tbr, 30 tbn (default)\n    Metadata:\n      handler_name    : VideoHandler\n      vendor_id       : [0][0][0][0]\n[out#0/matroska @ 00000190e2db0d00] Codec AVOption b:a (set bitrate (in bits/s)) has not been used for any stream. The most likely reason is either wrong type (e.g. a video option with no video streams) or that it is a private option of some decoder which was not actually used for any stream.\nStream mapping:\n  Stream #0:0 -> #0:0 (h264 (native) -> av1 (libsvtav1))\nPress [q] to stop, [?] for help\nSvt[info]: -------------------------------------------\nSvt[info]: SVT [version]:\tSVT-AV1 Encoder Lib v3.1.0-19-g6ecfe8ec\nSvt[info]: SVT [build]  :\tGCC 15.2.0\t 64 bit\nSvt[info]: LIB Build date: Aug 17 2025 11:37:13\nSvt[info]: -------------------------------------------\nSvt[info]: Level of Parallelism: 5\nSvt[info]: Number of PPCS 93\nSvt[info]: [asm level on system : up to avx2]\nSvt[info]: [asm level selected : up to avx2]\nSvt[info]: -------------------------------------------\nSvt[info]: SVT [config]: main profile\ttier (auto)\tlevel (auto)\nSvt[info]: SVT [config]: width / height / fps numerator / fps denominator \t\t: 1920 / 1080 / 30 / 1\nSvt[info]: SVT [config]: bit-depth / color format \t\t\t\t\t: 8 / YUV420\nSvt[info]: SVT [config]: preset / tune / pred struct \t\t\t\t\t: 4 / PSNR / random access\nSvt[info]: SVT [config]: gop size / mini-gop size / key-frame type \t\t\t: 161 / 16 / key frame\nSvt[info]: SVT [config]: BRC mode / target bitrate (kbps)\t\t\t\t: VBR / 2500 \nSvt[info]: SVT [config]: AQ mode / Variance Boost \t\t\t\t\t: 2 / 0\nSvt[info]: SVT [config]: sharpness / luminance-based QP bias \t\t\t\t: 0 / 0\nSvt[info]: SVT [config]: QP scale compress strength \t\t\t\t\t: 0\nSvt[info]: -------------------------------------------\nOutput #0, matroska, to 'C:\\Users\\Peter\\Desktop\\stuff\\MIUN\\quantitative_research\\video_compression\\compressed_videos\\BVI-HD\\av1\\2.5\\RockWater_1920x1080_30fps_av1.mkv':\n  Metadata:\n    major_brand     : isom\n    minor_version   : 512\n    compatible_brands: isomiso2avc1mp41\n    encoder         : Lavf62.3.100\n  Stream #0:0(und): Video: av1 (AV01 / 0x31305641), yuv420p(tv, progressive), 1920x1080, q=2-31, 2500 kb/s, 30 fps, 1k tbn (default)\n    Metadata:\n      encoder         : Lavc62.11.100 libsvtav1\n      handler_name    : VideoHandler\n      vendor_id       : [0][0][0][0]\n    Side data:\n      cpb: bitrate max/min/avg: 0/0/2500000 buffer size: 2500000 vbv_delay: N/A\nframe=    0 fps=0.0 q=0.0 size=       0KiB time=N/A bitrate=N/A speed=N/A elapsed=0:00:01.02    \nframe=    0 fps=0.0 q=0.0 size=       0KiB time=N/A bitrate=N/A speed=N/A elapsed=0:00:01.54    \nframe=    0 fps=0.0 q=0.0 size=       0KiB time=N/A bitrate=N/A speed=N/A elapsed=0:00:02.06    \nframe=    0 fps=0.0 q=0.0 size=       0KiB time=N/A bitrate=N/A speed=N/A elapsed=0:00:02.59    \nframe=    0 fps=0.0 q=0.0 size=       0KiB time=N/A bitrate=N/A speed=N/A elapsed=0:00:03.11    \nframe=    0 fps=0.0 q=0.0 size=       0KiB time=N/A bitrate=N/A speed=N/A elapsed=0:00:03.63    \nframe=    0 fps=0.0 q=0.0 size=       0KiB time=N/A bitrate=N/A speed=N/A elapsed=0:00:04.15    \nframe=    1 fps=0.2 q=32.0 size=       1KiB time=00:00:00.00 bitrate=N/A speed=   0x elapsed=0:00:04.66    \nframe=    1 fps=0.2 q=32.0 size=       1KiB time=00:00:00.00 bitrate=N/A speed=   0x elapsed=0:00:05.19    \nframe=    1 fps=0.2 q=32.0 size=       1KiB time=00:00:00.00 bitrate=N/A speed=   0x elapsed=0:00:05.71    \nframe=    2 fps=0.3 q=45.0 size=       1KiB time=00:00:00.03 bitrate= 171.1kbits/s speed=0.00535x elapsed=0:00:06.23    \nframe=    5 fps=0.7 q=42.0 size=       1KiB time=00:00:00.13 bitrate=  42.8kbits/s speed=0.0198x elapsed=0:00:06.74    \nframe=    7 fps=1.0 q=42.0 size=       1KiB time=00:00:00.20 bitrate=  28.5kbits/s speed=0.0275x elapsed=0:00:07.26    \nframe=    9 fps=1.2 q=40.0 size=       1KiB time=00:00:00.26 bitrate=  21.4kbits/s speed=0.0342x elapsed=0:00:07.79    \nframe=   10 fps=1.2 q=44.0 size=       1KiB time=00:00:00.30 bitrate=  19.0kbits/s speed=0.0361x elapsed=0:00:08.30    \nframe=   13 fps=1.5 q=40.0 size=       1KiB time=00:00:00.40 bitrate=  14.3kbits/s speed=0.0453x elapsed=0:00:08.82    \nframe=   17 fps=1.8 q=34.0 size=       1KiB time=00:00:00.53 bitrate=  10.7kbits/s speed=0.057x elapsed=0:00:09.34    \nframe=   19 fps=1.9 q=42.0 size=       1KiB time=00:00:00.60 bitrate=   9.5kbits/s speed=0.0609x elapsed=0:00:09.85    \nframe=   22 fps=2.1 q=46.0 size=       1KiB time=00:00:00.70 bitrate=   8.1kbits/s speed=0.0675x elapsed=0:00:10.37    \nframe=   23 fps=2.1 q=42.0 size=       1KiB time=00:00:00.73 bitrate=   7.8kbits/s speed=0.0674x elapsed=0:00:10.88    \nframe=   26 fps=2.3 q=46.0 size=       1KiB time=00:00:00.83 bitrate=   6.8kbits/s speed=0.0731x elapsed=0:00:11.40    \nframe=   29 fps=2.4 q=40.0 size=       1KiB time=00:00:00.93 bitrate=   6.1kbits/s speed=0.0783x elapsed=0:00:11.91    \nframe=   33 fps=2.7 q=33.0 size=       1KiB time=00:00:01.06 bitrate=   5.3kbits/s speed=0.0858x elapsed=0:00:12.43    \nframe=   35 fps=2.7 q=45.0 size=       1KiB time=00:00:01.13 bitrate=   5.0kbits/s speed=0.0875x elapsed=0:00:12.95    \nframe=   38 fps=2.8 q=47.0 size=       1KiB time=00:00:01.23 bitrate=   4.6kbits/s speed=0.0916x elapsed=0:00:13.46    \nframe=   39 fps=2.8 q=45.0 size=       1KiB time=00:00:01.26 bitrate=   4.5kbits/s speed=0.0906x elapsed=0:00:13.98    \nframe=   41 fps=2.8 q=39.0 size=       1KiB time=00:00:01.33 bitrate=   4.3kbits/s speed=0.0919x elapsed=0:00:14.50    \nframe=   44 fps=2.9 q=50.0 size=       1KiB time=00:00:01.43 bitrate=   4.0kbits/s speed=0.0954x elapsed=0:00:15.02    \nframe=   48 fps=3.1 q=50.0 size=       1KiB time=00:00:01.56 bitrate=   3.6kbits/s speed=0.101x elapsed=0:00:15.53    \nframe=   51 fps=3.2 q=47.0 size=       1KiB time=00:00:01.66 bitrate=   3.4kbits/s speed=0.104x elapsed=0:00:16.04    \nframe=   55 fps=3.3 q=47.0 size=       1KiB time=00:00:01.80 bitrate=   3.2kbits/s speed=0.109x elapsed=0:00:16.55    \nframe=   57 fps=3.3 q=40.0 size=       1KiB time=00:00:01.86 bitrate=   3.1kbits/s speed=0.109x elapsed=0:00:17.07    \nframe=   57 fps=3.2 q=40.0 size=       1KiB time=00:00:01.86 bitrate=   3.1kbits/s speed=0.106x elapsed=0:00:17.59    \nframe=   61 fps=3.4 q=44.0 size=       1KiB time=00:00:02.00 bitrate=   2.9kbits/s speed=0.11x elapsed=0:00:18.10    \nframe=   65 fps=3.5 q=33.0 size=       1KiB time=00:00:02.13 bitrate=   2.7kbits/s speed=0.115x elapsed=0:00:18.62    \nframe=   69 fps=3.6 q=45.0 size=       1KiB time=00:00:02.26 bitrate=   2.5kbits/s speed=0.118x elapsed=0:00:19.13    \nframe=   73 fps=3.7 q=43.0 size=       1KiB time=00:00:02.40 bitrate=   2.4kbits/s speed=0.122x elapsed=0:00:19.65    \nframe=   73 fps=3.6 q=43.0 size=       1KiB time=00:00:02.40 bitrate=   2.4kbits/s speed=0.119x elapsed=0:00:20.16    \nframe=   77 fps=3.7 q=45.0 size=       1KiB time=00:00:02.53 bitrate=   2.3kbits/s speed=0.123x elapsed=0:00:20.67    \nframe=   81 fps=3.8 q=35.0 size=       1KiB time=00:00:02.66 bitrate=   2.1kbits/s speed=0.126x elapsed=0:00:21.20    \nframe=   85 fps=3.9 q=49.0 size=       1KiB time=00:00:02.80 bitrate=   2.0kbits/s speed=0.129x elapsed=0:00:21.71    \nframe=   89 fps=4.0 q=44.0 size=       1KiB time=00:00:02.93 bitrate=   1.9kbits/s speed=0.132x elapsed=0:00:22.23    \nframe=   91 fps=4.0 q=51.0 size=       1KiB time=00:00:03.00 bitrate=   1.9kbits/s speed=0.132x elapsed=0:00:22.74    \nframe=   95 fps=4.1 q=50.0 size=       1KiB time=00:00:03.13 bitrate=   1.8kbits/s speed=0.135x elapsed=0:00:23.25    \nframe=   99 fps=4.2 q=49.0 size=       1KiB time=00:00:03.26 bitrate=   1.7kbits/s speed=0.137x elapsed=0:00:23.78    \nframe=  101 fps=4.2 q=46.0 size=       1KiB time=00:00:03.33 bitrate=   1.7kbits/s speed=0.137x elapsed=0:00:24.30    \nframe=  105 fps=4.2 q=47.0 size=       1KiB time=00:00:03.46 bitrate=   1.6kbits/s speed=0.14x elapsed=0:00:24.80    \nframe=  107 fps=4.2 q=49.0 size=       1KiB time=00:00:03.53 bitrate=   1.6kbits/s speed=0.139x elapsed=0:00:25.33    \nframe=  109 fps=4.2 q=46.0 size=       1KiB time=00:00:03.60 bitrate=   1.6kbits/s speed=0.139x elapsed=0:00:25.84    \nframe=  113 fps=4.3 q=41.0 size=       1KiB time=00:00:03.73 bitrate=   1.5kbits/s speed=0.142x elapsed=0:00:26.35    \nframe=  117 fps=4.4 q=44.0 size=       1KiB time=00:00:03.86 bitrate=   1.5kbits/s speed=0.144x elapsed=0:00:26.87    \nframe=  121 fps=4.4 q=46.0 size=       1KiB time=00:00:04.00 bitrate=   1.4kbits/s speed=0.146x elapsed=0:00:27.38    \nframe=  121 fps=4.3 q=46.0 size=       1KiB time=00:00:04.00 bitrate=   1.4kbits/s speed=0.143x elapsed=0:00:27.90    \nframe=  125 fps=4.4 q=46.0 size=       1KiB time=00:00:04.13 bitrate=   1.4kbits/s speed=0.145x elapsed=0:00:28.42    \nframe=  127 fps=4.4 q=49.0 size=       1KiB time=00:00:04.20 bitrate=   1.4kbits/s speed=0.145x elapsed=0:00:28.93    \nframe=  133 fps=4.5 q=49.0 size=       1KiB time=00:00:04.40 bitrate=   1.3kbits/s speed=0.149x elapsed=0:00:29.45    \nframe=  137 fps=4.6 q=46.0 size=       1KiB time=00:00:04.53 bitrate=   1.3kbits/s speed=0.151x elapsed=0:00:29.95    \nframe=  143 fps=4.7 q=49.0 size=       1KiB time=00:00:04.73 bitrate=   1.2kbits/s speed=0.155x elapsed=0:00:30.47    \n[out#0/matroska @ 00000190e2db0d00] video:1649KiB audio:0KiB subtitle:0KiB other streams:0KiB global headers:0KiB muxing overhead: 0.086681%\nframe=  150 fps=4.9 q=49.0 Lsize=    1651KiB time=00:00:04.96 bitrate=2722.8kbits/s speed=0.162x elapsed=0:00:30.56    \n",
  "seconds": 30.886720895767212,
  "probe_out": {}
}